# xmcd
#
# Track frame offsets: 
#        150
#        18016
#        40125
#        63236
#
# Disc length: 1244 seconds
#
# Revision: 2
# Processed by: cddbd v1.5.2PL0 Copyright (c) Steve Scherf et al.
# Submitted via: ExactAudioCopy v0.99pb5
#
DISCID=2404da04
DTITLE=Rammstein - Ich Tu Dir Weh
DYEAR=2010
DGENRE=Industrial
TTITLE0=Ich Tu Dir Weh (Radio Edit)
TTITLE1=Pussy ("Lick It" Remix By Scooter)
TTITLE2=Rammlied ("Rammin' The Steins" Remix by Devin Townsend)
TTITLE3=Ich Tu Dir Weh ("Smallboy" Remix by Jochen Schmalbach)
EXTD=
EXTT0=
EXTT1=
EXTT2=
EXTT3=
PLAYORDER=
